<mxfile host="65bd71144e">
    <diagram id="y7LyX2alFGtX07KHJ8K6" name="Page-1">
        <mxGraphModel dx="744" dy="479" grid="1" gridSize="10" guides="1" tooltips="1" connect="1" arrows="1" fold="1" page="1" pageScale="1" pageWidth="850" pageHeight="1100" math="0" shadow="0">
            <root>
                <mxCell id="0"/>
                <mxCell id="1" parent="0"/>
                <mxCell id="4" style="edgeStyle=none;html=1;entryX=0.5;entryY=0;entryDx=0;entryDy=0;" parent="1" source="2" target="71" edge="1">
                    <mxGeometry relative="1" as="geometry">
                        <mxPoint x="277.4900000000001" y="150" as="targetPoint"/>
                    </mxGeometry>
                </mxCell>
                <mxCell id="70" value="isTrue«${scope.config_milvus}==true &#10;&amp;&amp; ${scope.config_mongo}==true &#10;&amp;&amp; ${scope.config_postgres}==true &#10;&amp;&amp; ${scope.config_meta}==true»" style="edgeLabel;align=center;verticalAlign=middle;resizable=0;points=[];fontColor=#FFFFFF;fontSize=12;" parent="4" vertex="1" connectable="0">
                    <mxGeometry x="-0.2746" y="-2" relative="1" as="geometry">
                        <mxPoint x="2" y="5" as="offset"/>
                    </mxGeometry>
                </mxCell>
                <mxCell id="100" style="edgeStyle=none;html=1;" parent="1" source="2" target="99" edge="1">
                    <mxGeometry relative="1" as="geometry"/>
                </mxCell>
                <mxCell id="101" value="isTrue«${args.use_speech}!==true»" style="edgeLabel;align=center;verticalAlign=middle;resizable=0;points=[];" parent="100" vertex="1" connectable="0">
                    <mxGeometry x="-0.4496" y="2" relative="1" as="geometry">
                        <mxPoint x="55" as="offset"/>
                    </mxGeometry>
                </mxCell>
                <mxCell id="2" value="start" style="ellipse;whiteSpace=wrap;html=1;fillColor=#b0e3e6;strokeColor=#0e8088;fontColor=#050505;" parent="1" vertex="1">
                    <mxGeometry x="258" y="20" width="40" height="40" as="geometry"/>
                </mxCell>
                <mxCell id="6" style="edgeStyle=none;html=1;exitX=0.5;exitY=1;exitDx=0;exitDy=0;" parent="1" source="16" target="102" edge="1">
                    <mxGeometry relative="1" as="geometry">
                        <mxPoint x="539.01" y="880" as="sourcePoint"/>
                        <mxPoint x="278.0050000000001" y="820" as="targetPoint"/>
                    </mxGeometry>
                </mxCell>
                <mxCell id="19" value="timelineEnds«&quot;timelineSpeech&quot;»" style="edgeLabel;align=center;verticalAlign=middle;resizable=0;points=[];fontSize=12;" parent="6" vertex="1" connectable="0">
                    <mxGeometry x="-0.2424" y="1" relative="1" as="geometry">
                        <mxPoint as="offset"/>
                    </mxGeometry>
                </mxCell>
                <mxCell id="5" value="ok" style="ellipse;whiteSpace=wrap;html=1;fillColor=#dae8fc;strokeColor=#6c8ebf;fontColor=#000000;" parent="1" vertex="1">
                    <mxGeometry x="257.99" y="1100" width="40" height="40" as="geometry"/>
                </mxCell>
                <mxCell id="11" style="edgeStyle=none;html=1;" parent="1" source="94" target="10" edge="1">
                    <mxGeometry relative="1" as="geometry">
                        <mxPoint x="277.5" y="380" as="sourcePoint"/>
                        <Array as="points"/>
                    </mxGeometry>
                </mxCell>
                <mxCell id="20" value="process«&quot;localFiles1.read&quot;»" style="edgeLabel;align=center;verticalAlign=middle;resizable=0;points=[];fontSize=12;" parent="11" vertex="1" connectable="0">
                    <mxGeometry x="-0.2925" y="-1" relative="1" as="geometry">
                        <mxPoint x="1" y="9" as="offset"/>
                    </mxGeometry>
                </mxCell>
                <mxCell id="74" style="edgeStyle=none;html=1;entryX=0.5;entryY=0;entryDx=0;entryDy=0;" parent="1" source="8" target="94" edge="1">
                    <mxGeometry relative="1" as="geometry">
                        <mxPoint x="278" y="270" as="targetPoint"/>
                    </mxGeometry>
                </mxCell>
                <mxCell id="8" value="timelineNext«&quot;timelineSpeech&quot;»" style="rounded=1;whiteSpace=wrap;fillColor=#ffff88;strokeColor=#36393d;fontColor=#000000;" parent="1" vertex="1">
                    <mxGeometry x="175.5" y="210" width="205" height="30" as="geometry"/>
                </mxCell>
                <mxCell id="14" style="edgeStyle=none;html=1;entryX=0.5;entryY=0;entryDx=0;entryDy=0;" parent="1" source="10" target="30" edge="1">
                    <mxGeometry relative="1" as="geometry">
                        <mxPoint x="393" y="500" as="targetPoint"/>
                    </mxGeometry>
                </mxCell>
                <mxCell id="21" value="process«&quot;speechToText1&quot;»" style="edgeLabel;align=center;verticalAlign=middle;resizable=0;points=[];fontSize=12;" parent="14" vertex="1" connectable="0">
                    <mxGeometry x="-0.2" y="1" relative="1" as="geometry">
                        <mxPoint x="-1" y="-4" as="offset"/>
                    </mxGeometry>
                </mxCell>
                <mxCell id="10" value="" style="ellipse;whiteSpace=wrap;html=1;fillColor=#b0e3e6;strokeColor=#0e8088;fontColor=#050505;" parent="1" vertex="1">
                    <mxGeometry x="258" y="400" width="40" height="40" as="geometry"/>
                </mxCell>
                <mxCell id="22" style="edgeStyle=none;html=1;entryX=1;entryY=0.5;entryDx=0;entryDy=0;fontSize=12;" parent="1" source="16" target="8" edge="1">
                    <mxGeometry relative="1" as="geometry">
                        <Array as="points">
                            <mxPoint x="664" y="750"/>
                            <mxPoint x="664.49" y="225"/>
                        </Array>
                    </mxGeometry>
                </mxCell>
                <mxCell id="23" value="timelineHasMore«&quot;timelineSpeech&quot;»" style="edgeLabel;align=center;verticalAlign=middle;resizable=0;points=[];fontSize=12;" parent="22" vertex="1" connectable="0">
                    <mxGeometry x="0.1347" y="2" relative="1" as="geometry">
                        <mxPoint x="2" as="offset"/>
                    </mxGeometry>
                </mxCell>
                <mxCell id="16" value="" style="ellipse;whiteSpace=wrap;html=1;fillColor=#CDEB8B;strokeColor=#0e8088;fontColor=#050505;" parent="1" vertex="1">
                    <mxGeometry x="258" y="730" width="40" height="40" as="geometry"/>
                </mxCell>
                <mxCell id="31" style="edgeStyle=none;html=1;entryX=0.5;entryY=0;entryDx=0;entryDy=0;" parent="1" source="30" target="36" edge="1">
                    <mxGeometry relative="1" as="geometry">
                        <mxPoint x="278" y="580" as="targetPoint"/>
                    </mxGeometry>
                </mxCell>
                <mxCell id="32" value="process«&quot;audioFeature1.diarization&quot;»" style="edgeLabel;align=center;verticalAlign=middle;resizable=0;points=[];fontSize=12;" parent="31" vertex="1" connectable="0">
                    <mxGeometry x="-0.411" y="1" relative="1" as="geometry">
                        <mxPoint x="-1" y="-2" as="offset"/>
                    </mxGeometry>
                </mxCell>
                <mxCell id="30" value="" style="ellipse;whiteSpace=wrap;html=1;fillColor=#b0e3e6;strokeColor=#0e8088;fontColor=#050505;" parent="1" vertex="1">
                    <mxGeometry x="257.99" y="510" width="40" height="40" as="geometry"/>
                </mxCell>
                <mxCell id="40" style="edgeStyle=none;html=1;entryX=0.5;entryY=0;entryDx=0;entryDy=0;" parent="1" source="36" target="16" edge="1">
                    <mxGeometry relative="1" as="geometry">
                        <Array as="points"/>
                    </mxGeometry>
                </mxCell>
                <mxCell id="42" value="process«&quot;milvusIx1.indexintent&quot;»" style="edgeLabel;align=center;verticalAlign=middle;resizable=0;points=[];" parent="40" vertex="1" connectable="0">
                    <mxGeometry x="-0.6234" relative="1" as="geometry">
                        <mxPoint as="offset"/>
                    </mxGeometry>
                </mxCell>
                <mxCell id="36" value="" style="ellipse;whiteSpace=wrap;html=1;fillColor=#b0e3e6;strokeColor=#0e8088;fontColor=#050505;" parent="1" vertex="1">
                    <mxGeometry x="257.99" y="600" width="40" height="40" as="geometry"/>
                </mxCell>
                <mxCell id="72" style="edgeStyle=none;html=1;fontColor=#FFFFFF;" parent="1" source="71" target="8" edge="1">
                    <mxGeometry relative="1" as="geometry"/>
                </mxCell>
                <mxCell id="71" value="mongo«&quot;write&quot;;&#10;&quot;dbnotes&quot;;&quot;collection_document&quot;;&quot;metadata.videoMeta&quot;»" style="rounded=1;whiteSpace=wrap;fillColor=#eeeeee;strokeColor=#36393d;fontColor=#000000;" parent="1" vertex="1">
                    <mxGeometry x="93" y="140" width="370" height="42" as="geometry"/>
                </mxCell>
                <mxCell id="94" value="" style="ellipse;whiteSpace=wrap;html=1;fillColor=#b0e3e6;strokeColor=#0e8088;fontColor=#050505;" parent="1" vertex="1">
                    <mxGeometry x="258" y="300" width="40" height="40" as="geometry"/>
                </mxCell>
                <mxCell id="99" value="ok" style="ellipse;whiteSpace=wrap;html=1;fillColor=#b0e3e6;strokeColor=#0e8088;fontColor=#050505;" parent="1" vertex="1">
                    <mxGeometry x="560" y="20" width="40" height="40" as="geometry"/>
                </mxCell>
                <mxCell id="103" style="edgeStyle=none;html=1;entryX=0.5;entryY=0;entryDx=0;entryDy=0;" parent="1" source="102" target="107" edge="1">
                    <mxGeometry relative="1" as="geometry"/>
                </mxCell>
                <mxCell id="104" value="&lt;span style=&quot;font-size: 12px;&quot;&gt;process«&quot;llm.summary&quot;»&lt;/span&gt;" style="edgeLabel;html=1;align=center;verticalAlign=middle;resizable=0;points=[];" parent="103" vertex="1" connectable="0">
                    <mxGeometry x="-0.3066" relative="1" as="geometry">
                        <mxPoint y="9" as="offset"/>
                    </mxGeometry>
                </mxCell>
                <mxCell id="102" value="postgres«&quot;page&quot;;&#10;&quot;args.db&quot;;({&quot;limit&quot;: 50});&#10;&quot;srv/wideSight/sql/reads/notes.sql&quot;;&#10;&quot;alltranscript.input&quot;»" style="rounded=1;whiteSpace=wrap;fillColor=#ffff88;strokeColor=#36393d;fontColor=#000000;" parent="1" vertex="1">
                    <mxGeometry x="150.9" y="810" width="254.18" height="70" as="geometry"/>
                </mxCell>
                <mxCell id="106" style="edgeStyle=none;html=1;" parent="1" source="105" target="5" edge="1">
                    <mxGeometry relative="1" as="geometry"/>
                </mxCell>
                <mxCell id="105" value="set«&quot;args.use_speech&quot;;false»" style="rounded=1;whiteSpace=wrap;fillColor=#cce5ff;strokeColor=#36393d;fontColor=#000000;" parent="1" vertex="1">
                    <mxGeometry x="161.92999999999998" y="1030" width="232.13" height="40" as="geometry"/>
                </mxCell>
                <mxCell id="108" style="edgeStyle=none;html=1;" parent="1" source="107" target="105" edge="1">
                    <mxGeometry relative="1" as="geometry"/>
                </mxCell>
                <mxCell id="107" value="postgres«&quot;execute&quot;;&#10;&quot;args.db&quot;;&quot;alltranscript&quot;;&#10;&quot;srv/wideSight/sql/writes/summary.sql&quot;;&#10;&quot;alltranscript.save&quot;»" style="rounded=1;whiteSpace=wrap;fillColor=#ffff88;strokeColor=#36393d;fontColor=#000000;" parent="1" vertex="1">
                    <mxGeometry x="150.9" y="930" width="254.18" height="70" as="geometry"/>
                </mxCell>
            </root>
        </mxGraphModel>
    </diagram>
</mxfile>